<?xml version="1.0" encoding="UTF-8" standalone="no"?><!DOCTYPE svg PUBLIC "-//W3C//DTD SVG 1.1//EN" "http://www.w3.org/Graphics/SVG/1.1/DTD/svg11.dtd"><svg width="100%" height="100%" viewBox="0 0 18 22" version="1.1" xmlns="http://www.w3.org/2000/svg" xmlns:xlink="http://www.w3.org/1999/xlink" xml:space="preserve" style="fill-rule:evenodd;clip-rule:evenodd;stroke-linejoin:round;stroke-miterlimit:1.41421;"><g id="Layer1"><g opacity="0.599526"><path d="M0,21.993l0,-16.03l17.993,0l0,16.03l-17.993,0ZM1.171,7.143l0,13.604l15.593,0l0,-13.756l0,0.152l-15.668,0l0.075,0l0,0Z" style="fill:#000;"/><path d="M4.943,6.315l0.044,-0.026l0.16,0l0,3.642l-0.226,0l-0.936,0l0,-3.642l0.097,0l0.282,0.108c0.015,0.006 0.029,0.011 0.044,0.016l-0.044,-0.016c-0.135,-0.059 -0.245,-0.171 -0.301,-0.31c-0.023,-0.056 -0.034,-0.113 -0.04,-0.173c-0.003,-0.075 -0.001,-0.149 0.002,-0.224c0.035,-0.744 0.242,-1.47 0.598,-2.124c0.306,-0.563 0.716,-1.069 1.201,-1.484c0.369,-0.316 0.782,-0.58 1.224,-0.778c0.827,-0.371 1.75,-0.502 2.646,-0.367c0.509,0.077 1.005,0.238 1.465,0.472c0.467,0.238 0.896,0.549 1.27,0.917c0.455,0.447 0.83,0.978 1.096,1.561c0.284,0.623 0.436,1.297 0.441,1.982l-0.001,0.045c-0.014,0.121 -0.053,0.232 -0.132,0.326c-0.014,0.017 -0.03,0.033 -0.046,0.049l0.228,0l0,3.642l-1.162,0l0,-3.642l0.161,0c-0.09,-0.086 -0.151,-0.2 -0.171,-0.323c-0.008,-0.046 -0.007,-0.092 -0.008,-0.139c-0.001,-0.06 -0.004,-0.121 -0.007,-0.182c-0.006,-0.075 -0.013,-0.151 -0.023,-0.226c-0.077,-0.552 -0.276,-1.079 -0.574,-1.548c-0.287,-0.451 -0.662,-0.845 -1.098,-1.153c-0.36,-0.254 -0.762,-0.449 -1.187,-0.565c-0.772,-0.213 -1.612,-0.161 -2.35,0.153c-0.348,0.149 -0.673,0.344 -0.967,0.584c-0.364,0.297 -0.678,0.658 -0.922,1.061c-0.254,0.421 -0.434,0.89 -0.512,1.377c-0.019,0.12 -0.032,0.241 -0.038,0.363c-0.004,0.077 -0.004,0.154 -0.007,0.23l-0.006,0.045c-0.012,0.059 -0.028,0.115 -0.056,0.169c-0.035,0.07 -0.085,0.131 -0.145,0.18l-0.144,0.086c0.052,-0.022 0.101,-0.051 0.144,-0.086l0,0Z" style="fill:#000;"/></g></g></svg>